<?xml version="1.0" ?><svg data-name="Layer 1" id="Layer_1" viewBox="0 0 64 64" xmlns="http://www.w3.org/2000/svg"><defs><style>.cls-1{fill:#f95555;}.cls-2{fill:#d81d1d;}.cls-3{fill:#ffce62;}</style></defs><title/><circle class="cls-1" cx="32" cy="32" r="20"/><path class="cls-2" d="M34.834,51.776a19.985,19.985,0,1,0-9.668-38.552l1.361.094a28.582,28.582,0,0,1,7.347,1.607c2.017.655,4.792-.137,6.471,1.085,1.7,1.234,1.794,4.126,3.028,5.822,1.222,1.68,3.949,2.659,4.6,4.677C48.609,28.456,47,30.842,47,33c0,1.539,1.8,3.26,1.471,4.7-.34,1.485-2.72,2.246-3.372,3.584-.662,1.36.2,3.7-.738,4.865s-3.417.819-4.6,1.751-2.827,2.891-4.194,3.539Z"/><circle class="cls-1" cx="32" cy="6" r="2"/><circle class="cls-1" cx="13.615" cy="13.615" r="2"/><circle class="cls-1" cx="6" cy="32" r="2"/><circle class="cls-1" cx="13.615" cy="50.385" r="2"/><circle class="cls-1" cx="32" cy="58" r="2"/><circle class="cls-1" cx="50.385" cy="50.385" r="2"/><circle class="cls-1" cx="58" cy="32" r="2"/><circle class="cls-1" cx="50.385" cy="13.615" r="2"/><circle class="cls-3" cx="32" cy="22" r="2"/><circle class="cls-3" cx="27" cy="23.34" r="2"/><circle class="cls-3" cx="23.34" cy="27" r="2"/><circle class="cls-3" cx="22" cy="32" r="2"/><circle class="cls-3" cx="23.34" cy="37" r="2"/><circle class="cls-3" cx="27" cy="40.66" r="2"/><circle class="cls-3" cx="32" cy="42" r="2"/><circle class="cls-3" cx="37" cy="40.66" r="2"/><circle class="cls-3" cx="40.66" cy="37" r="2"/><circle class="cls-3" cx="42" cy="32" r="2"/><circle class="cls-3" cx="40.66" cy="27" r="2"/><circle class="cls-3" cx="37" cy="23.34" r="2"/><circle class="cls-3" cx="26.306" cy="10.75" r="2"/><circle class="cls-3" cx="21" cy="12.947" r="2"/><circle class="cls-3" cx="12.947" cy="21" r="2"/><circle class="cls-3" cx="10.75" cy="26.306" r="2"/><circle class="cls-3" cx="10.75" cy="37.694" r="2"/><circle class="cls-3" cx="12.947" cy="43" r="2"/><circle class="cls-3" cx="21" cy="51.053" r="2"/><circle class="cls-3" cx="26.306" cy="53.25" r="2"/><circle class="cls-3" cx="37.694" cy="53.25" r="2"/><circle class="cls-3" cx="43" cy="51.053" r="2"/><circle class="cls-3" cx="51.053" cy="43" r="2"/><circle class="cls-3" cx="53.25" cy="37.694" r="2"/><circle class="cls-3" cx="53.25" cy="26.306" r="2"/><circle class="cls-3" cx="51.053" cy="21" r="2"/><circle class="cls-3" cx="43" cy="12.947" r="2"/><circle class="cls-3" cx="37.694" cy="10.75" r="2"/><path d="M58,29a3,3,0,0,0-2.816,2H52.949c-.027-.583-.073-1.161-.148-1.731a2.994,2.994,0,1,0,.115-5.933,2.993,2.993,0,1,0-4.282-4.1c-.354-.461-.728-.9-1.118-1.334L49.1,16.312a2.972,2.972,0,0,0,1.283.3,3,3,0,1,0-3-3,2.968,2.968,0,0,0,.3,1.288L46.1,16.484c-.43-.39-.873-.764-1.334-1.118a2.993,2.993,0,1,0-4.1-4.282,2.994,2.994,0,1,0-5.933.115c-.57-.075-1.148-.121-1.731-.148V8.816a3,3,0,1,0-2,0v2.235c-.583.027-1.161.073-1.731.148a2.994,2.994,0,1,0-5.933-.115,2.993,2.993,0,1,0-4.1,4.282c-.461.354-.9.728-1.334,1.118L16.313,14.9a2.965,2.965,0,0,0,.3-1.288,3,3,0,1,0-3,3,2.972,2.972,0,0,0,1.283-.3L16.484,17.9c-.39.43-.764.873-1.118,1.334a2.993,2.993,0,1,0-4.282,4.1,2.994,2.994,0,1,0,.115,5.933c-.075.57-.121,1.148-.148,1.731H8.816a3,3,0,1,0,0,2h2.235c.027.583.073,1.161.148,1.731a2.994,2.994,0,1,0-.115,5.933,2.993,2.993,0,1,0,4.282,4.1c.354.461.728.9,1.118,1.334L14.9,47.688a2.972,2.972,0,0,0-1.283-.3,3,3,0,1,0,3,3,2.968,2.968,0,0,0-.3-1.288L17.9,47.516c.43.39.873.764,1.334,1.118a2.993,2.993,0,1,0,4.1,4.282,2.994,2.994,0,1,0,5.933-.115c.57.075,1.148.121,1.731.148v2.235a3,3,0,1,0,2,0V52.949c.583-.027,1.161-.073,1.731-.148a2.994,2.994,0,1,0,5.933.115,2.993,2.993,0,1,0,4.1-4.282c.461-.354.9-.728,1.334-1.118L47.687,49.1a2.968,2.968,0,0,0-.3,1.288,3,3,0,1,0,3-3,2.972,2.972,0,0,0-1.283.3L47.516,46.1c.39-.43.764-.873,1.118-1.334a2.993,2.993,0,1,0,4.282-4.1,2.994,2.994,0,1,0-.115-5.933c.075-.57.121-1.148.148-1.731h2.235A2.995,2.995,0,1,0,58,29Zm-3.784-2.953a1,1,0,1,1-1.224-.707A1,1,0,0,1,54.216,26.047Zm-3.663-5.913a1,1,0,1,1-.366,1.366A1,1,0,0,1,50.553,20.134Zm-.168-7.523a1,1,0,1,1-1,1A1,1,0,0,1,50.385,12.611Zm-8.251-.164a1,1,0,1,1,.366,1.366A1,1,0,0,1,42.134,12.447Zm-5.406-1.956a1,1,0,1,1,.707,1.225A1,1,0,0,1,36.728,10.491ZM32,5a1,1,0,1,1-1,1A1,1,0,0,1,32,5ZM26.047,9.784a1,1,0,1,1-.707,1.224A1,1,0,0,1,26.047,9.784Zm-5.547,2.3a1,1,0,1,1-.366,1.366A1,1,0,0,1,20.5,12.081Zm-6.885,2.53a1,1,0,1,1,1-1A1,1,0,0,1,13.615,14.611ZM12.081,20.5a1,1,0,1,1,.366,1.366A1,1,0,0,1,12.081,20.5Zm-1.59,6.772a1,1,0,1,1,1.225-.707A1,1,0,0,1,10.491,27.272ZM6,33a1,1,0,1,1,1-1A1,1,0,0,1,6,33Zm3.784,4.953a1,1,0,1,1,1.224.707A1,1,0,0,1,9.784,37.953Zm3.663,5.913a1,1,0,1,1,.366-1.366A1,1,0,0,1,13.447,43.866Zm.168,7.523a1,1,0,1,1,1-1A1,1,0,0,1,13.615,51.389Zm8.251.164a1,1,0,1,1-.366-1.366A1,1,0,0,1,21.866,51.553Zm5.406,1.956a1,1,0,1,1-.707-1.225A1,1,0,0,1,27.272,53.509ZM32,59a1,1,0,1,1,1-1A1,1,0,0,1,32,59Zm5.953-4.784a1,1,0,1,1,.707-1.224A1,1,0,0,1,37.953,54.216Zm5.547-2.3a1,1,0,1,1,.366-1.366A1,1,0,0,1,43.5,51.919Zm6.885-2.53a1,1,0,1,1-1,1A1,1,0,0,1,50.385,49.389ZM51.919,43.5a1,1,0,1,1-.366-1.366A1,1,0,0,1,51.919,43.5Zm1.59-6.772a1,1,0,1,1-1.225.707A1,1,0,0,1,53.509,36.728ZM46.1,44.688l-2.081-2.082-1.415,1.415L44.688,46.1A18.892,18.892,0,0,1,33,50.949V48H31v2.949A18.892,18.892,0,0,1,19.312,46.1l2.082-2.081-1.415-1.415L17.9,44.688A18.892,18.892,0,0,1,13.051,33H16V31H13.051A18.892,18.892,0,0,1,17.9,19.312l2.081,2.082,1.415-1.415L19.312,17.9A18.892,18.892,0,0,1,31,13.051V16h2V13.051A18.892,18.892,0,0,1,44.688,17.9l-2.082,2.081,1.415,1.415L46.1,19.312A18.892,18.892,0,0,1,50.949,31H48v2h2.949A18.892,18.892,0,0,1,46.1,44.688ZM58,33a1,1,0,1,1,1-1A1,1,0,0,1,58,33Z"/><path d="M45,32a3,3,0,0,0-2.216-2.883,2.982,2.982,0,0,0-2.9-5A2.961,2.961,0,0,0,40,23.34a3,3,0,0,0-5.117-2.124,2.983,2.983,0,0,0-5.766,0,2.982,2.982,0,0,0-5,2.9A2.961,2.961,0,0,0,23.34,24a3,3,0,0,0-2.124,5.117,2.983,2.983,0,0,0,0,5.766,2.982,2.982,0,0,0,2.9,5A2.955,2.955,0,0,0,24,40.66a3,3,0,0,0,5.117,2.123,2.983,2.983,0,0,0,5.766,0A3,3,0,0,0,40,40.66a2.955,2.955,0,0,0-.114-.774A2.961,2.961,0,0,0,40.66,40a3,3,0,0,0,2.124-5.117A3,3,0,0,0,45,32Zm-7.226,5.774A2.955,2.955,0,0,0,37,37.66a3,3,0,0,0-2.883,2.217,2.994,2.994,0,0,0-4.234,0A3,3,0,0,0,27,37.66a2.955,2.955,0,0,0-.774.114A2.955,2.955,0,0,0,26.34,37a3,3,0,0,0-2.217-2.883,2.994,2.994,0,0,0,0-4.234A3,3,0,0,0,26.34,27a2.955,2.955,0,0,0-.114-.774A2.955,2.955,0,0,0,27,26.34a3,3,0,0,0,2.883-2.217,2.994,2.994,0,0,0,4.234,0A3,3,0,0,0,37,26.34a2.955,2.955,0,0,0,.774-.114A2.955,2.955,0,0,0,37.66,27a3,3,0,0,0,2.217,2.883,2.994,2.994,0,0,0,0,4.234A3,3,0,0,0,37.66,37,2.955,2.955,0,0,0,37.774,37.774ZM40.66,26a1,1,0,1,1-1,1A1,1,0,0,1,40.66,26ZM37,22.34a1,1,0,1,1-1,1A1,1,0,0,1,37,22.34ZM32,21a1,1,0,1,1-1,1A1,1,0,0,1,32,21Zm-5,1.34a1,1,0,1,1-1,1A1,1,0,0,1,27,22.34ZM23.34,26a1,1,0,1,1-1,1A1,1,0,0,1,23.34,26ZM22,31a1,1,0,1,1-1,1A1,1,0,0,1,22,31Zm1.34,7a1,1,0,1,1,1-1A1,1,0,0,1,23.34,38ZM27,41.66a1,1,0,1,1,1-1A1,1,0,0,1,27,41.66ZM32,43a1,1,0,1,1,1-1A1,1,0,0,1,32,43Zm5-1.34a1,1,0,1,1,1-1A1,1,0,0,1,37,41.66ZM40.66,38a1,1,0,1,1,1-1A1,1,0,0,1,40.66,38ZM42,33a1,1,0,1,1,1-1A1,1,0,0,1,42,33Z"/></svg>